<mxfile host="app.diagrams.net" modified="2020-07-25T05:54:29.395Z" agent="5.0 (Windows NT 10.0; Win64; x64) AppleWebKit/537.36 (KHTML, like Gecko) Chrome/84.0.4147.89 Safari/537.36" etag="GLoB24pDU1S9hf5Lo_Qd" version="13.5.3" type="github">
  <diagram id="R_P41mEICFCsG3THIY6Q" name="Page-1">
    <mxGraphModel dx="994" dy="548" grid="1" gridSize="10" guides="1" tooltips="1" connect="1" arrows="1" fold="1" page="1" pageScale="1" pageWidth="850" pageHeight="1100" math="0" shadow="0">
      <root>
        <mxCell id="0" />
        <mxCell id="1" parent="0" />
        <mxCell id="RpMwm-W39NZdclkWYhaL-2" value="" style="verticalLabelPosition=bottom;verticalAlign=top;html=1;shadow=0;dashed=0;strokeWidth=1;shape=mxgraph.android.phone2;strokeColor=#006658;fillColor=#21C0A5;fontColor=#5C5C5C;" parent="1" vertex="1">
          <mxGeometry x="80" y="203" width="30" height="60" as="geometry" />
        </mxCell>
        <mxCell id="RpMwm-W39NZdclkWYhaL-4" value="" style="shape=mxgraph.bpmn.user_task;html=1;outlineConnect=0;fillColor=#21C0A5;strokeColor=#006658;fontColor=#5C5C5C;" parent="1" vertex="1">
          <mxGeometry x="34" y="97" width="30" height="40" as="geometry" />
        </mxCell>
        <mxCell id="RpMwm-W39NZdclkWYhaL-5" value="" style="shape=mxgraph.cisco.people.androgenous_person;html=1;dashed=0;fillColor=#21C0A5;strokeColor=#006658;strokeWidth=2;verticalLabelPosition=bottom;verticalAlign=top;fontColor=#5C5C5C;" parent="1" vertex="1">
          <mxGeometry x="39.66" y="433" width="40.34" height="40" as="geometry" />
        </mxCell>
        <mxCell id="RpMwm-W39NZdclkWYhaL-6" value="" style="shape=mxgraph.cisco.people.standing_man;html=1;dashed=0;fillColor=#21C0A5;strokeColor=#006658;strokeWidth=2;verticalLabelPosition=bottom;verticalAlign=top;fontColor=#5C5C5C;" parent="1" vertex="1">
          <mxGeometry x="38" y="201" width="22" height="62" as="geometry" />
        </mxCell>
        <mxCell id="RpMwm-W39NZdclkWYhaL-15" style="edgeStyle=orthogonalEdgeStyle;curved=0;rounded=0;sketch=0;orthogonalLoop=1;jettySize=auto;html=1;entryX=1;entryY=0.5;entryDx=0;entryDy=0;strokeColor=#006658;fillColor=#21C0A5;fontColor=#5C5C5C;" parent="1" target="RpMwm-W39NZdclkWYhaL-14" edge="1">
          <mxGeometry relative="1" as="geometry">
            <mxPoint x="310" y="275" as="sourcePoint" />
          </mxGeometry>
        </mxCell>
        <mxCell id="RpMwm-W39NZdclkWYhaL-12" value="" style="shape=image;html=1;verticalAlign=top;verticalLabelPosition=bottom;labelBackgroundColor=#ffffff;imageAspect=0;aspect=fixed;image=https://cdn2.iconfinder.com/data/icons/whcompare-isometric-web-hosting-servers/50/cloud-server-128.png;rounded=0;sketch=0;strokeColor=#0000FF;fillColor=#21C0A5;fontColor=#5C5C5C;" parent="1" vertex="1">
          <mxGeometry x="220" y="220" width="100" height="100" as="geometry" />
        </mxCell>
        <mxCell id="RpMwm-W39NZdclkWYhaL-14" value="&lt;b&gt;API GATEWAY&lt;/b&gt;" style="rounded=1;whiteSpace=wrap;html=1;sketch=0;strokeColor=#d6b656;fillColor=#fff2cc;direction=west;horizontal=0;" parent="1" vertex="1">
          <mxGeometry x="348" y="140" width="40" height="270" as="geometry" />
        </mxCell>
        <mxCell id="RpMwm-W39NZdclkWYhaL-28" value="" style="group" parent="1" vertex="1" connectable="0">
          <mxGeometry x="490" y="240" width="110" height="60" as="geometry" />
        </mxCell>
        <mxCell id="RpMwm-W39NZdclkWYhaL-30" value="" style="html=1;verticalLabelPosition=bottom;align=center;labelBackgroundColor=#ffffff;verticalAlign=top;strokeWidth=2;shadow=0;dashed=0;shape=mxgraph.ios7.icons.cloud;rounded=0;sketch=0;" parent="RpMwm-W39NZdclkWYhaL-28" vertex="1">
          <mxGeometry x="-22.224467117890697" y="-21.818181818181817" width="122.23456914839883" height="76.36363636363636" as="geometry" />
        </mxCell>
        <mxCell id="RpMwm-W39NZdclkWYhaL-22" value="" style="html=1;fillColor=#1ba1e2;strokeColor=#006EAF;verticalAlign=top;labelPosition=center;verticalLabelPosition=bottom;align=center;spacingTop=-6;fontSize=11;fontStyle=1;shape=mxgraph.gcp2.hexIcon;prIcon=container_optimized_os;rounded=0;sketch=0;fontColor=#ffffff;" parent="RpMwm-W39NZdclkWYhaL-28" vertex="1">
          <mxGeometry x="11.275648758341603" width="33.8269462750248" height="32.72727272727273" as="geometry" />
        </mxCell>
        <mxCell id="RpMwm-W39NZdclkWYhaL-23" value="" style="html=1;fillColor=#1ba1e2;strokeColor=#006EAF;verticalAlign=top;labelPosition=center;verticalLabelPosition=bottom;align=center;spacingTop=-6;fontSize=11;fontStyle=1;shape=mxgraph.gcp2.hexIcon;prIcon=container_optimized_os;rounded=0;sketch=0;fontColor=#ffffff;" parent="RpMwm-W39NZdclkWYhaL-28" vertex="1">
          <mxGeometry y="21.818181818181817" width="33.8269462750248" height="32.72727272727273" as="geometry" />
        </mxCell>
        <mxCell id="RpMwm-W39NZdclkWYhaL-24" value="" style="html=1;fillColor=#1ba1e2;strokeColor=#006EAF;verticalAlign=top;labelPosition=center;verticalLabelPosition=bottom;align=center;spacingTop=-6;fontSize=11;fontStyle=1;shape=mxgraph.gcp2.hexIcon;prIcon=container_optimized_os;rounded=0;sketch=0;fontColor=#ffffff;" parent="RpMwm-W39NZdclkWYhaL-28" vertex="1">
          <mxGeometry x="19.168602889180725" y="21.818181818181817" width="37.20964090252729" height="32.72727272727273" as="geometry" />
        </mxCell>
        <mxCell id="RpMwm-W39NZdclkWYhaL-25" value="" style="html=1;fillColor=#1ba1e2;strokeColor=#006EAF;verticalAlign=top;labelPosition=center;verticalLabelPosition=bottom;align=center;spacingTop=-6;fontSize=11;fontStyle=1;shape=mxgraph.gcp2.hexIcon;prIcon=container_optimized_os;rounded=0;sketch=0;fontColor=#ffffff;" parent="RpMwm-W39NZdclkWYhaL-28" vertex="1">
          <mxGeometry x="42.847465281698085" y="21.818181818181817" width="33.8269462750248" height="32.72727272727273" as="geometry" />
        </mxCell>
        <mxCell id="RpMwm-W39NZdclkWYhaL-26" value="" style="html=1;fillColor=#1ba1e2;strokeColor=#006EAF;verticalAlign=top;labelPosition=center;verticalLabelPosition=bottom;align=center;spacingTop=-6;fontSize=11;fontStyle=1;shape=mxgraph.gcp2.hexIcon;prIcon=container_optimized_os;rounded=0;sketch=0;fontColor=#ffffff;" parent="RpMwm-W39NZdclkWYhaL-28" vertex="1">
          <mxGeometry x="32.69938139919065" width="33.8269462750248" height="32.72727272727273" as="geometry" />
        </mxCell>
        <mxCell id="RpMwm-W39NZdclkWYhaL-46" value="" style="group" parent="1" vertex="1" connectable="0">
          <mxGeometry x="490" y="370" width="127.80000000000001" height="74.55000000000001" as="geometry" />
        </mxCell>
        <mxCell id="RpMwm-W39NZdclkWYhaL-47" value="" style="html=1;verticalLabelPosition=bottom;align=center;labelBackgroundColor=#ffffff;verticalAlign=top;strokeWidth=2;shadow=0;dashed=0;shape=mxgraph.ios7.icons.cloud;rounded=0;sketch=0;" parent="RpMwm-W39NZdclkWYhaL-46" vertex="1">
          <mxGeometry x="-22.224467117890697" y="-21.818181818181817" width="122.23456914839883" height="76.36363636363636" as="geometry" />
        </mxCell>
        <mxCell id="RpMwm-W39NZdclkWYhaL-48" value="" style="html=1;fillColor=#6a00ff;strokeColor=#3700CC;verticalAlign=top;labelPosition=center;verticalLabelPosition=bottom;align=center;spacingTop=-6;fontSize=11;fontStyle=1;shape=mxgraph.gcp2.hexIcon;prIcon=container_optimized_os;rounded=0;sketch=0;fontColor=#ffffff;" parent="RpMwm-W39NZdclkWYhaL-46" vertex="1">
          <mxGeometry x="11.275648758341603" width="33.8269462750248" height="32.72727272727273" as="geometry" />
        </mxCell>
        <mxCell id="RpMwm-W39NZdclkWYhaL-49" value="" style="html=1;fillColor=#6a00ff;strokeColor=#3700CC;verticalAlign=top;labelPosition=center;verticalLabelPosition=bottom;align=center;spacingTop=-6;fontSize=11;fontStyle=1;shape=mxgraph.gcp2.hexIcon;prIcon=container_optimized_os;rounded=0;sketch=0;fontColor=#ffffff;" parent="RpMwm-W39NZdclkWYhaL-46" vertex="1">
          <mxGeometry y="21.818181818181817" width="33.8269462750248" height="32.72727272727273" as="geometry" />
        </mxCell>
        <mxCell id="RpMwm-W39NZdclkWYhaL-50" value="" style="html=1;fillColor=#6a00ff;strokeColor=#3700CC;verticalAlign=top;labelPosition=center;verticalLabelPosition=bottom;align=center;spacingTop=-6;fontSize=11;fontStyle=1;shape=mxgraph.gcp2.hexIcon;prIcon=container_optimized_os;rounded=0;sketch=0;fontColor=#ffffff;" parent="RpMwm-W39NZdclkWYhaL-46" vertex="1">
          <mxGeometry x="22.224467117890697" y="21.818181818181817" width="34.159005960198" height="32.72727272727273" as="geometry" />
        </mxCell>
        <mxCell id="RpMwm-W39NZdclkWYhaL-51" value="" style="html=1;fillColor=#6a00ff;strokeColor=#3700CC;verticalAlign=top;labelPosition=center;verticalLabelPosition=bottom;align=center;spacingTop=-6;fontSize=11;fontStyle=1;shape=mxgraph.gcp2.hexIcon;prIcon=container_optimized_os;rounded=0;sketch=0;fontColor=#ffffff;" parent="RpMwm-W39NZdclkWYhaL-46" vertex="1">
          <mxGeometry x="42.847465281698085" y="21.818181818181817" width="33.8269462750248" height="32.72727272727273" as="geometry" />
        </mxCell>
        <mxCell id="RpMwm-W39NZdclkWYhaL-52" value="" style="html=1;fillColor=#6a00ff;strokeColor=#3700CC;verticalAlign=top;labelPosition=center;verticalLabelPosition=bottom;align=center;spacingTop=-6;fontSize=11;fontStyle=1;shape=mxgraph.gcp2.hexIcon;prIcon=container_optimized_os;rounded=0;sketch=0;fontColor=#ffffff;" parent="RpMwm-W39NZdclkWYhaL-46" vertex="1">
          <mxGeometry x="32.69938139919065" width="33.8269462750248" height="32.72727272727273" as="geometry" />
        </mxCell>
        <mxCell id="RpMwm-W39NZdclkWYhaL-68" value="&lt;b&gt;Call Center Services&lt;/b&gt;" style="text;html=1;align=center;verticalAlign=middle;whiteSpace=wrap;rounded=0;sketch=0;" parent="RpMwm-W39NZdclkWYhaL-46" vertex="1">
          <mxGeometry x="-49.19999999999999" y="54.55000000000001" width="177" height="20" as="geometry" />
        </mxCell>
        <mxCell id="RpMwm-W39NZdclkWYhaL-53" value="" style="group" parent="1" vertex="1" connectable="0">
          <mxGeometry x="500" y="120" width="110" height="80" as="geometry" />
        </mxCell>
        <mxCell id="RpMwm-W39NZdclkWYhaL-54" value="" style="html=1;verticalLabelPosition=bottom;align=center;labelBackgroundColor=#ffffff;verticalAlign=top;strokeWidth=2;shadow=0;dashed=0;shape=mxgraph.ios7.icons.cloud;rounded=0;sketch=0;" parent="RpMwm-W39NZdclkWYhaL-53" vertex="1">
          <mxGeometry x="-39" y="-21.82" width="126.01" height="76.36" as="geometry" />
        </mxCell>
        <mxCell id="RpMwm-W39NZdclkWYhaL-55" value="" style="html=1;fillColor=#fa6800;strokeColor=#C73500;verticalAlign=top;labelPosition=center;verticalLabelPosition=bottom;align=center;spacingTop=-6;fontSize=11;fontStyle=1;shape=mxgraph.gcp2.hexIcon;prIcon=container_optimized_os;rounded=0;sketch=0;fontColor=#ffffff;" parent="RpMwm-W39NZdclkWYhaL-53" vertex="1">
          <mxGeometry x="-1.7243512416583968" width="33.8269462750248" height="32.72727272727273" as="geometry" />
        </mxCell>
        <mxCell id="RpMwm-W39NZdclkWYhaL-56" value="" style="html=1;fillColor=#fa6800;strokeColor=#C73500;verticalAlign=top;labelPosition=center;verticalLabelPosition=bottom;align=center;spacingTop=-6;fontSize=11;fontStyle=1;shape=mxgraph.gcp2.hexIcon;prIcon=container_optimized_os;rounded=0;sketch=0;fontColor=#ffffff;" parent="RpMwm-W39NZdclkWYhaL-53" vertex="1">
          <mxGeometry x="-13" y="21.818181818181817" width="33.8269462750248" height="32.72727272727273" as="geometry" />
        </mxCell>
        <mxCell id="RpMwm-W39NZdclkWYhaL-57" value="" style="html=1;fillColor=#fa6800;strokeColor=#C73500;verticalAlign=top;labelPosition=center;verticalLabelPosition=bottom;align=center;spacingTop=-6;fontSize=11;fontStyle=1;shape=mxgraph.gcp2.hexIcon;prIcon=container_optimized_os;rounded=0;sketch=0;fontColor=#ffffff;" parent="RpMwm-W39NZdclkWYhaL-53" vertex="1">
          <mxGeometry x="9.168602889180725" y="21.818181818181817" width="37.20964090252729" height="32.72727272727273" as="geometry" />
        </mxCell>
        <mxCell id="RpMwm-W39NZdclkWYhaL-58" value="" style="html=1;fillColor=#fa6800;strokeColor=#C73500;verticalAlign=top;labelPosition=center;verticalLabelPosition=bottom;align=center;spacingTop=-6;fontSize=11;fontStyle=1;shape=mxgraph.gcp2.hexIcon;prIcon=container_optimized_os;rounded=0;sketch=0;fontColor=#ffffff;" parent="RpMwm-W39NZdclkWYhaL-53" vertex="1">
          <mxGeometry x="33.847465281698085" y="21.818181818181817" width="33.8269462750248" height="32.72727272727273" as="geometry" />
        </mxCell>
        <mxCell id="RpMwm-W39NZdclkWYhaL-59" value="" style="html=1;fillColor=#fa6800;strokeColor=#C73500;verticalAlign=top;labelPosition=center;verticalLabelPosition=bottom;align=center;spacingTop=-6;fontSize=11;fontStyle=1;shape=mxgraph.gcp2.hexIcon;prIcon=container_optimized_os;rounded=0;sketch=0;fontColor=#ffffff;" parent="RpMwm-W39NZdclkWYhaL-53" vertex="1">
          <mxGeometry x="20.69938139919065" width="33.8269462750248" height="32.72727272727273" as="geometry" />
        </mxCell>
        <mxCell id="RpMwm-W39NZdclkWYhaL-64" value="&lt;b&gt;Customer Services&lt;/b&gt;" style="text;html=1;align=center;verticalAlign=middle;whiteSpace=wrap;rounded=0;sketch=0;" parent="RpMwm-W39NZdclkWYhaL-53" vertex="1">
          <mxGeometry x="-38.22000000000003" y="53" width="130" height="20" as="geometry" />
        </mxCell>
        <mxCell id="RpMwm-W39NZdclkWYhaL-60" value="" style="endArrow=classic;startArrow=classic;html=1;strokeColor=#006658;fillColor=#21C0A5;fontColor=#5C5C5C;entryX=-0.01;entryY=0.201;entryDx=0;entryDy=0;entryPerimeter=0;" parent="1" edge="1" target="upEFrfNN-lWiFYi0aEHt-1">
          <mxGeometry width="50" height="50" relative="1" as="geometry">
            <mxPoint x="390" y="210" as="sourcePoint" />
            <mxPoint x="440" y="170" as="targetPoint" />
          </mxGeometry>
        </mxCell>
        <mxCell id="RpMwm-W39NZdclkWYhaL-61" value="" style="endArrow=classic;startArrow=classic;html=1;strokeColor=#006658;fillColor=#21C0A5;fontColor=#5C5C5C;" parent="1" edge="1">
          <mxGeometry width="50" height="50" relative="1" as="geometry">
            <mxPoint x="390" y="274" as="sourcePoint" />
            <mxPoint x="450" y="274" as="targetPoint" />
          </mxGeometry>
        </mxCell>
        <mxCell id="RpMwm-W39NZdclkWYhaL-62" value="" style="endArrow=classic;startArrow=classic;html=1;strokeColor=#006658;fillColor=#21C0A5;fontColor=#5C5C5C;entryX=-0.02;entryY=0.821;entryDx=0;entryDy=0;entryPerimeter=0;exitX=0;exitY=0.25;exitDx=0;exitDy=0;" parent="1" target="upEFrfNN-lWiFYi0aEHt-1" edge="1" source="RpMwm-W39NZdclkWYhaL-14">
          <mxGeometry width="50" height="50" relative="1" as="geometry">
            <mxPoint x="400" y="350" as="sourcePoint" />
            <mxPoint x="460" y="310" as="targetPoint" />
          </mxGeometry>
        </mxCell>
        <mxCell id="RpMwm-W39NZdclkWYhaL-63" value="&lt;b&gt;Microservices Layer&lt;/b&gt;" style="text;html=1;align=center;verticalAlign=middle;whiteSpace=wrap;rounded=0;sketch=0;" parent="1" vertex="1">
          <mxGeometry x="463" y="59" width="130" height="20" as="geometry" />
        </mxCell>
        <mxCell id="RpMwm-W39NZdclkWYhaL-65" value="&lt;b&gt;CRM Services&lt;/b&gt;" style="text;html=1;align=center;verticalAlign=middle;whiteSpace=wrap;rounded=0;sketch=0;" parent="1" vertex="1">
          <mxGeometry x="463" y="293" width="130" height="20" as="geometry" />
        </mxCell>
        <mxCell id="RpMwm-W39NZdclkWYhaL-69" style="edgeStyle=orthogonalEdgeStyle;curved=0;rounded=0;sketch=0;orthogonalLoop=1;jettySize=auto;html=1;exitX=0.75;exitY=1;exitDx=0;exitDy=0;entryX=0.746;entryY=0.7;entryDx=0;entryDy=0;entryPerimeter=0;strokeColor=#006658;fillColor=#21C0A5;fontColor=#5C5C5C;" parent="1" source="RpMwm-W39NZdclkWYhaL-65" target="RpMwm-W39NZdclkWYhaL-65" edge="1">
          <mxGeometry relative="1" as="geometry" />
        </mxCell>
        <mxCell id="RpMwm-W39NZdclkWYhaL-70" value="" style="verticalLabelPosition=bottom;verticalAlign=top;html=1;shadow=0;dashed=0;strokeWidth=1;shape=mxgraph.android.phone2;strokeColor=#006658;fillColor=#21C0A5;fontColor=#5C5C5C;" parent="1" vertex="1">
          <mxGeometry x="86" y="87" width="30" height="60" as="geometry" />
        </mxCell>
        <mxCell id="RpMwm-W39NZdclkWYhaL-71" value="&lt;b style=&quot;font-size: x-small&quot;&gt;Diagnostic Center App&lt;/b&gt;" style="text;html=1;align=center;verticalAlign=middle;whiteSpace=wrap;rounded=0;sketch=0;" parent="1" vertex="1">
          <mxGeometry x="10" y="147" width="90" height="24" as="geometry" />
        </mxCell>
        <mxCell id="RpMwm-W39NZdclkWYhaL-72" value="&lt;font size=&quot;1&quot;&gt;&lt;b&gt;Customer/ Verifier/ Seller App&lt;/b&gt;&lt;/font&gt;" style="text;html=1;align=center;verticalAlign=middle;whiteSpace=wrap;rounded=0;sketch=0;" parent="1" vertex="1">
          <mxGeometry x="8" y="274" width="90" height="21" as="geometry" />
        </mxCell>
        <object label="" id="RpMwm-W39NZdclkWYhaL-7">
          <mxCell style="pointerEvents=1;shadow=0;dashed=0;html=1;strokeColor=none;fillColor=#21C0A5;labelPosition=center;verticalLabelPosition=bottom;verticalAlign=top;outlineConnect=0;align=center;shape=mxgraph.office.users.call_center_agent;fontColor=#5C5C5C;" parent="1" vertex="1">
            <mxGeometry x="39.66333333333333" y="326" width="30.666666666666664" height="38.5" as="geometry" />
          </mxCell>
        </object>
        <mxCell id="RpMwm-W39NZdclkWYhaL-73" value="&lt;font size=&quot;1&quot;&gt;&lt;b&gt;Call Center Web App&lt;/b&gt;&lt;/font&gt;" style="text;html=1;align=center;verticalAlign=middle;whiteSpace=wrap;rounded=0;sketch=0;" parent="1" vertex="1">
          <mxGeometry x="20" y="369" width="70" height="20" as="geometry" />
        </mxCell>
        <mxCell id="RpMwm-W39NZdclkWYhaL-74" value="&lt;font size=&quot;1&quot;&gt;&lt;b&gt;Back Office Web App&lt;/b&gt;&lt;/font&gt;" style="text;html=1;align=center;verticalAlign=middle;whiteSpace=wrap;rounded=0;sketch=0;" parent="1" vertex="1">
          <mxGeometry x="24.83" y="476" width="70" height="20" as="geometry" />
        </mxCell>
        <mxCell id="RpMwm-W39NZdclkWYhaL-75" value="" style="endArrow=classic;startArrow=classic;html=1;strokeColor=#3A5431;fillColor=#6d8764;fontColor=#5C5C5C;" parent="1" edge="1">
          <mxGeometry width="50" height="50" relative="1" as="geometry">
            <mxPoint x="116" y="140" as="sourcePoint" />
            <mxPoint x="220" y="240" as="targetPoint" />
          </mxGeometry>
        </mxCell>
        <mxCell id="RpMwm-W39NZdclkWYhaL-76" value="" style="endArrow=classic;startArrow=classic;html=1;strokeColor=#3A5431;fillColor=#6d8764;fontColor=#5C5C5C;exitX=1.134;exitY=0.587;exitDx=0;exitDy=0;exitPerimeter=0;" parent="1" source="RpMwm-W39NZdclkWYhaL-2" edge="1">
          <mxGeometry width="50" height="50" relative="1" as="geometry">
            <mxPoint x="116" y="267.21" as="sourcePoint" />
            <mxPoint x="220" y="267" as="targetPoint" />
          </mxGeometry>
        </mxCell>
        <mxCell id="RpMwm-W39NZdclkWYhaL-77" value="" style="endArrow=classic;startArrow=classic;html=1;strokeColor=#3A5431;fillColor=#6d8764;fontColor=#5C5C5C;" parent="1" edge="1">
          <mxGeometry width="50" height="50" relative="1" as="geometry">
            <mxPoint x="80" y="350" as="sourcePoint" />
            <mxPoint x="220" y="290" as="targetPoint" />
          </mxGeometry>
        </mxCell>
        <mxCell id="RpMwm-W39NZdclkWYhaL-78" value="" style="endArrow=classic;startArrow=classic;html=1;strokeColor=#3A5431;fillColor=#6d8764;fontColor=#5C5C5C;entryX=-0.044;entryY=0.918;entryDx=0;entryDy=0;entryPerimeter=0;" parent="1" target="RpMwm-W39NZdclkWYhaL-12" edge="1">
          <mxGeometry width="50" height="50" relative="1" as="geometry">
            <mxPoint x="80" y="430" as="sourcePoint" />
            <mxPoint x="200" y="572.3924528301887" as="targetPoint" />
          </mxGeometry>
        </mxCell>
        <mxCell id="RpMwm-W39NZdclkWYhaL-80" value="&lt;b&gt;Integration Layer&lt;/b&gt;" style="text;html=1;align=center;verticalAlign=middle;whiteSpace=wrap;rounded=0;sketch=0;" parent="1" vertex="1">
          <mxGeometry x="660" y="59" width="130" height="20" as="geometry" />
        </mxCell>
        <mxCell id="RpMwm-W39NZdclkWYhaL-81" value="" style="aspect=fixed;perimeter=ellipsePerimeter;html=1;align=center;shadow=0;dashed=0;fontColor=#4277BB;labelBackgroundColor=#ffffff;fontSize=12;spacingTop=3;image;image=img/lib/ibm/analytics/data_integration.svg;rounded=0;sketch=0;strokeColor=#0000FF;fillColor=#21C0A5;" parent="1" vertex="1">
          <mxGeometry x="680" y="228" width="73" height="73" as="geometry" />
        </mxCell>
        <mxCell id="RpMwm-W39NZdclkWYhaL-82" value="" style="aspect=fixed;perimeter=ellipsePerimeter;html=1;align=center;shadow=0;dashed=0;fontColor=#4277BB;labelBackgroundColor=#ffffff;fontSize=12;spacingTop=3;image;image=img/lib/ibm/analytics/data_integration.svg;rounded=0;sketch=0;strokeColor=#0000FF;fillColor=#21C0A5;" parent="1" vertex="1">
          <mxGeometry x="686" y="350" width="73" height="73" as="geometry" />
        </mxCell>
        <mxCell id="RpMwm-W39NZdclkWYhaL-85" value="Service Integration&lt;br&gt;" style="outlineConnect=0;fontColor=#232F3E;gradientColor=none;strokeColor=#ffffff;fillColor=#232F3E;dashed=0;verticalLabelPosition=middle;verticalAlign=bottom;align=center;html=1;whiteSpace=wrap;fontSize=10;fontStyle=1;spacing=3;shape=mxgraph.aws4.productIcon;prIcon=mxgraph.aws4.managed_services;rounded=0;sketch=0;" parent="1" vertex="1">
          <mxGeometry x="680" y="97" width="80" height="110" as="geometry" />
        </mxCell>
        <mxCell id="RpMwm-W39NZdclkWYhaL-86" value="&lt;b&gt;Data Services&lt;/b&gt;" style="text;html=1;align=center;verticalAlign=middle;whiteSpace=wrap;rounded=0;sketch=0;" parent="1" vertex="1">
          <mxGeometry x="655" y="301" width="130" height="20" as="geometry" />
        </mxCell>
        <mxCell id="upEFrfNN-lWiFYi0aEHt-1" value="" style="html=1;fontColor=#FF3333;fontStyle=1;align=left;verticalAlign=top;spacing=0;labelBorderColor=none;fillColor=none;dashed=1;strokeWidth=2;strokeColor=#FF3333;spacingLeft=4;spacingTop=-3;rounded=0;sketch=0;" vertex="1" parent="1">
          <mxGeometry x="450" y="90" width="160" height="360" as="geometry" />
        </mxCell>
      </root>
    </mxGraphModel>
  </diagram>
</mxfile>
